<svg id="Layer_1" data-name="Layer 1" xmlns="http://www.w3.org/2000/svg" viewBox="0 0 1000 1000"><defs><style>.cls-1{fill:#fff;}.cls-2{fill:#c1272d;}</style></defs><title>no-circula</title><path d="M782.13,403.38l-.18-.76L749.06,282c-3.53-12.92-17.37-23.5-30.77-23.5H281.58c-13.39,0-27.24,10.58-30.76,23.5L217.93,402.62a.79.79,0,0,0,0,.13A23.19,23.19,0,0,0,195,427.08l7.66,178.36a25.72,25.72,0,0,0,25.4,24.33H766.92a25.72,25.72,0,0,0,25.4-24.33L800,427.08A23.16,23.16,0,0,0,782.13,403.38Z"/><rect x="666.56" y="580.08" width="92.57" height="175.39" rx="25"/><rect x="241.72" y="580.08" width="92.57" height="175.39" rx="25"/><polygon class="cls-1" points="753.97 407.61 245.9 407.61 281.06 285.64 718.81 285.64 753.97 407.61"/><circle class="cls-1" cx="279.24" cy="512.36" r="36.54"/><circle class="cls-1" cx="720.63" cy="512.36" r="36.54"/><path class="cls-2" d="M500,0C223.86,0,0,223.86,0,500s223.86,500,500,500,500-223.86,500-500S776.14,0,500,0ZM900,500a398.29,398.29,0,0,1-84,245.28L254.72,184A398.29,398.29,0,0,1,500,100C720.91,100,900,279.09,900,500Zm-800,0a398.29,398.29,0,0,1,84-245.28L745.28,816A398.29,398.29,0,0,1,500,900C279.09,900,100,720.91,100,500Z"/></svg>