<svg xmlns="http://www.w3.org/2000/svg">
	<symbol viewBox="0 0 512 512" id="facebook">
		<title>Facebook icon</title>
		<path d="M297.28,508.67q-3.21.52-6.42,1Q294.07,509.19,297.28,508.67Z"/><path d="M302.4,507.79l-3.06.54Z"/><path d="M285.14,510.34q-3.75.42-7.53.74Q281.39,510.77,285.14,510.34Z"/><path d="M290.05,509.74c-1.19.16-2.4.31-3.6.45C287.65,510.05,288.86,509.9,290.05,509.74Z"/><path d="M309.37,506.41l-2.71.57Z"/><path d="M326.66,502.11l-2.18.61Z"/><path d="M321.43,503.54l-2.37.62Z"/><path d="M314.59,505.25l-2.52.57Z"/><path d="M277.53,511.09q-2,.17-4,.3Q275.51,511.26,277.53,511.09Z"/><path d="M511,256C511,115.19,396.81,1,256,1S1,115.19,1,256,115.19,511,256,511c1.5,0,3,0,4.48-.06V312.43H205.7V248.59h54.78v-47c0-54.49,33.27-84.14,81.87-84.14A449.4,449.4,0,0,1,391.47,120v56.95H358c-26.44,0-31.56,12.56-31.56,31v40.67h63.23l-8.24,63.84h-55V501.15C433,470.59,511,372.4,511,256Z"/><path d="M272.91,511.43c-2.66.17-5.34.31-8,.4C267.57,511.74,270.25,511.6,272.91,511.43Z"/><path d="M264.75,511.84c-1.41,0-2.83.08-4.25.1C261.92,511.92,263.34,511.88,264.75,511.84Z"/>
	</symbol>
	<symbol viewBox="0 0 512 512" id="whatsapp">
		<title>WhatsApp icon</title>
		<path class="cls-1" d="M435.21,75.72A251.05,251.05,0,0,0,256.44,1.61C117.14,1.61,3.77,115,3.72,254.31A252.28,252.28,0,0,0,37.45,380.65L1.6,511.61l134-35.15a252.39,252.39,0,0,0,120.77,30.76h.1c139.29,0,252.67-113.37,252.72-252.71A251.19,251.19,0,0,0,435.21,75.72ZM256.44,464.54h-.09a209.79,209.79,0,0,1-106.91-29.27l-7.66-4.56-79.5,20.86L83.5,374.06l-5-7.95A209.51,209.51,0,0,1,46.39,254.32c0-115.81,94.27-210,210.13-210a210.08,210.08,0,0,1,210,210.2C466.44,370.31,372.22,464.54,256.44,464.54ZM371.66,307.23c-6.32-3.17-37.36-18.44-43.15-20.55s-10-3.15-14.21,3.17-16.31,20.54-20,24.75-7.37,4.74-13.68,1.58-26.66-9.83-50.79-31.34c-18.77-16.74-31.44-37.42-35.12-43.74s0-9.41,2.77-12.89c6.83-8.49,13.68-17.39,15.78-21.6s1-7.9-.53-11.06-14.2-34.24-19.46-46.89C188.15,136.35,183,138,179.07,137.82c-3.68-.18-7.89-.22-12.1-.22a23.2,23.2,0,0,0-16.84,7.9c-5.79,6.33-22.1,21.6-22.1,52.68s22.63,61.11,25.78,65.32,44.53,68,107.87,95.35a362.3,362.3,0,0,0,36,13.3c15.13,4.81,28.89,4.13,39.77,2.51,12.14-1.82,37.36-15.28,42.63-30s5.26-27.39,3.68-30S378,310.39,371.66,307.23Z"/>
	</symbol>
</svg>